<svg width="448" height="471" viewBox="0 0 448 471" fill="none" xmlns="http://www.w3.org/2000/svg">
<path d="M151.456 311.232C151.456 294.72 153.856 280.128 158.656 267.456C163.648 254.784 171.712 242.88 182.848 231.744C193.984 220.416 209.344 208.704 228.928 196.608C234.688 192.96 238.72 189.888 241.024 187.392C243.52 184.704 244.768 181.536 244.768 177.888C244.768 170.016 239.104 166.08 227.776 166.08C219.328 166.08 209.632 168.288 198.688 172.704C187.744 177.12 177.856 182.688 169.024 189.408L152.032 128.064C164.32 121.92 178.432 116.736 194.368 112.512C210.304 108.096 226.336 105.888 242.464 105.888C268.96 105.888 289.504 111.744 304.096 123.456C318.688 135.168 325.984 151.776 325.984 173.28C325.984 184.8 323.392 194.976 318.208 203.808C313.216 212.448 307.072 219.744 299.776 225.696C292.672 231.648 283.36 238.464 271.84 246.144C258.976 254.592 249.472 261.888 243.328 268.032C237.376 273.984 234.4 280.896 234.4 288.768H269.248V272.352H328.288V336H151.456V311.232Z" fill="#31CCFF" fill-opacity="0.22"/>
</svg>
