<svg width="448" height="471" viewBox="0 0 448 471" fill="none" xmlns="http://www.w3.org/2000/svg">
<path d="M287.968 221.664C293.92 223.2 299.584 226.368 304.96 231.168C310.528 235.776 315.04 241.632 318.496 248.736C322.144 255.84 323.968 263.712 323.968 272.352C323.968 293.472 316.384 310.08 301.216 322.176C286.24 334.08 263.968 340.032 234.4 340.032C220.384 340.032 206.368 338.496 192.352 335.424C178.336 332.16 165.856 328.224 154.912 323.616V262.272C166.816 267.456 179.104 271.68 191.776 274.944C204.64 278.208 216.832 279.84 228.352 279.84C236.416 279.84 242.272 278.592 245.92 276.096C249.76 273.6 251.68 269.472 251.68 263.712C251.68 252.576 244.96 247.008 231.52 247.008H210.784V199.776H226.912C239.584 199.776 245.92 194.4 245.92 183.648C245.92 173.28 239.584 168.096 226.912 168.096C217.696 168.096 208.096 170.304 198.112 174.72C188.128 178.944 178.432 184.512 169.024 191.424L152.032 130.08C163.744 123.936 177.088 118.752 192.064 114.528C207.04 110.112 222.112 107.904 237.28 107.904C263.776 107.904 284.128 113.472 298.336 124.608C312.544 135.744 319.648 151.488 319.648 171.84C319.648 184.512 316.672 194.976 310.72 203.232C304.768 211.296 297.184 217.44 287.968 221.664Z" fill="#31CCFF" fill-opacity="0.22"/>
</svg>
