<svg width="12" height="13" viewBox="0 0 12 13" fill="none" xmlns="http://www.w3.org/2000/svg">
<path d="M8.3335 7.60693L6.10693 9.8335L3.85693 7.60693C2.19287 7.67725 0.856934 9.06006 0.856934 10.7476V10.9585C0.856934 11.5913 1.34912 12.0835 1.98193 12.0835H10.2319C10.8413 12.0835 11.3569 11.5913 11.3569 10.9585V10.7476C11.3569 9.06006 9.99756 7.67725 8.3335 7.60693ZM1.16162 1.9585L1.32568 2.00537V3.36475C1.16162 3.4585 1.04443 3.646 1.04443 3.8335C1.04443 4.04443 1.13818 4.2085 1.30225 4.30225L0.927246 5.75537C0.880371 5.91943 0.974121 6.0835 1.11475 6.0835H2.07568C2.21631 6.0835 2.31006 5.91943 2.26318 5.75537L1.88818 4.30225C2.05225 4.2085 2.16943 4.04443 2.16943 3.8335C2.16943 3.646 2.05225 3.4585 1.88818 3.36475V2.146L3.43506 2.49756C3.22412 2.91943 3.10693 3.36475 3.10693 3.8335C3.10693 5.49756 4.44287 6.8335 6.10693 6.8335C7.74756 6.8335 9.10693 5.49756 9.10693 3.8335C9.10693 3.36475 8.96631 2.91943 8.77881 2.49756L11.0288 1.9585C11.4507 1.86475 11.4507 1.32568 11.0288 1.23193L6.55225 0.153809C6.24756 0.0834961 5.94287 0.0834961 5.63818 0.153809L1.16162 1.23193C0.739746 1.32568 0.739746 1.86475 1.16162 1.9585Z" fill="#FD7200"/>
</svg>
