<svg width="53" height="48" viewBox="0 0 53 48" fill="none" xmlns="http://www.w3.org/2000/svg">
<path d="M5.02834 35.9607V14.1887C5.02834 13.4191 5.8614 12.9379 6.52806 13.3225L25.3982 24.2092C25.7078 24.3878 25.8985 24.718 25.8985 25.0754V46.8473C25.8985 47.617 25.0654 48.0981 24.3988 47.7135L5.52862 36.8269C5.21906 36.6483 5.02834 36.3181 5.02834 35.9607Z" fill="#2A2A2A"/>
<path d="M19.1558 27.9022V23.1781C19.1558 22.4087 19.9885 21.9275 20.6552 22.3118L24.7557 24.6752C25.0655 24.8538 25.2563 25.1841 25.2563 25.5416V30.2657C25.2563 31.0352 24.4236 31.5164 23.757 31.1321L19.6565 28.7686C19.3467 28.5901 19.1558 28.2598 19.1558 27.9022Z" fill="#31CCFF"/>
<path d="M19.1558 35.6081V30.884C19.1558 30.1146 19.9885 29.6334 20.6552 30.0177L24.7557 32.3811C25.0655 32.5597 25.2563 32.89 25.2563 33.2475V37.9716C25.2563 38.7411 24.4236 39.2223 23.757 38.838L19.6565 36.4745C19.3467 36.296 19.1558 35.9657 19.1558 35.6081Z" fill="#31CCFF"/>
<path d="M19.1558 43.314V38.59C19.1558 37.8205 19.9885 37.3393 20.6552 37.7236L24.7557 40.0871C25.0655 40.2656 25.2563 40.5959 25.2563 40.9534V45.6775C25.2563 46.447 24.4236 46.9282 23.757 46.5439L19.6565 44.1804C19.3467 44.0019 19.1558 43.6716 19.1558 43.314Z" fill="#31CCFF"/>
<path d="M12.4132 24.0493V19.3252C12.4132 18.5557 13.2459 18.0745 13.9125 18.4588L18.013 20.8223C18.3228 21.0008 18.5137 21.3312 18.5137 21.6887V26.4128C18.5137 27.1822 17.681 27.6634 17.0143 27.2792L12.9138 24.9157C12.604 24.7371 12.4132 24.4068 12.4132 24.0493Z" fill="#31CCFF"/>
<path d="M12.4132 31.7552V27.0311C12.4132 26.2616 13.2459 25.7804 13.9125 26.1647L18.013 28.5282C18.3228 28.7067 18.5137 29.0371 18.5137 29.3946V34.1187C18.5137 34.8882 17.681 35.3693 17.0143 34.9851L12.9138 32.6216C12.604 32.443 12.4132 32.1127 12.4132 31.7552Z" fill="#31CCFF"/>
<path d="M12.4132 39.4611V34.737C12.4132 33.9675 13.2459 33.4864 13.9125 33.8706L18.013 36.2341C18.3228 36.4126 18.5137 36.743 18.5137 37.1005V41.8246C18.5137 42.5941 17.681 43.0752 17.0143 42.691L12.9138 40.3275C12.604 40.1489 12.4132 39.8186 12.4132 39.4611Z" fill="#31CCFF"/>
<path d="M5.67049 20.1963V15.4722C5.67049 14.7028 6.5032 14.2216 7.16986 14.6059L11.2704 16.9693C11.5801 17.1479 11.771 17.4782 11.771 17.8357V22.5598C11.771 23.3293 10.9383 23.8105 10.2716 23.4262L6.17111 21.0627C5.86136 20.8842 5.67049 20.5539 5.67049 20.1963Z" fill="#31CCFF"/>
<path d="M5.67049 27.9022V23.1781C5.67049 22.4087 6.5032 21.9275 7.16986 22.3118L11.2704 24.6752C11.5801 24.8538 11.771 25.1841 11.771 25.5416V30.2657C11.771 31.0352 10.9383 31.5164 10.2716 31.1321L6.17111 28.7686C5.86136 28.5901 5.67049 28.2598 5.67049 27.9022Z" fill="#31CCFF"/>
<path d="M5.67049 35.6081V30.884C5.67049 30.1146 6.5032 29.6334 7.16986 30.0177L11.2704 32.3811C11.5801 32.5597 11.771 32.89 11.771 33.2475V37.9716C11.771 38.7411 10.9383 39.2223 10.2716 38.838L6.17111 36.4745C5.86136 36.296 5.67049 35.9657 5.67049 35.6081Z" fill="#31CCFF"/>
<path d="M47.0897 35.9607V14.1887C47.0897 13.4191 46.2566 12.9379 45.59 13.3225L26.7198 24.2092C26.4103 24.3878 26.2195 24.718 26.2195 25.0754V46.8473C26.2195 47.617 27.0526 48.0981 27.7193 47.7135L46.5894 36.8269C46.899 36.6483 47.0897 36.3181 47.0897 35.9607Z" fill="#2A2A2A"/>
<path d="M32.9622 27.9022V23.1781C32.9622 22.4087 32.1295 21.9275 31.4629 22.3118L27.3623 24.6752C27.0526 24.8538 26.8617 25.1841 26.8617 25.5416V30.2657C26.8617 31.0352 27.6944 31.5164 28.3611 31.1321L32.4616 28.7686C32.7714 28.5901 32.9622 28.2598 32.9622 27.9022Z" fill="#6F24FF"/>
<path d="M32.9622 35.6081V30.884C32.9622 30.1146 32.1295 29.6334 31.4629 30.0177L27.3623 32.3811C27.0526 32.5597 26.8617 32.89 26.8617 33.2475V37.9716C26.8617 38.7411 27.6944 39.2223 28.3611 38.838L32.4616 36.4745C32.7714 36.296 32.9622 35.9657 32.9622 35.6081Z" fill="#6F24FF"/>
<path d="M32.9622 43.314V38.59C32.9622 37.8205 32.1295 37.3393 31.4629 37.7236L27.3623 40.0871C27.0526 40.2656 26.8617 40.5959 26.8617 40.9534V45.6775C26.8617 46.447 27.6944 46.9282 28.3611 46.5439L32.4616 44.1804C32.7714 44.0019 32.9622 43.6716 32.9622 43.314Z" fill="#6F24FF"/>
<path d="M39.7049 24.0493V19.3252C39.7049 18.5557 38.8722 18.0745 38.2055 18.4588L34.105 20.8223C33.7952 21.0008 33.6044 21.3312 33.6044 21.6887V26.4128C33.6044 27.1822 34.4371 27.6634 35.1037 27.2792L39.2043 24.9157C39.514 24.7371 39.7049 24.4068 39.7049 24.0493Z" fill="#6F24FF"/>
<path d="M39.7049 31.7552V27.0311C39.7049 26.2616 38.8722 25.7804 38.2055 26.1647L34.105 28.5282C33.7952 28.7067 33.6044 29.0371 33.6044 29.3946V34.1187C33.6044 34.8882 34.4371 35.3693 35.1037 34.9851L39.2043 32.6216C39.514 32.443 39.7049 32.1127 39.7049 31.7552Z" fill="#6F24FF"/>
<path d="M39.7049 39.4611V34.737C39.7049 33.9675 38.8722 33.4864 38.2055 33.8706L34.105 36.2341C33.7952 36.4126 33.6044 36.743 33.6044 37.1005V41.8246C33.6044 42.5941 34.4371 43.0752 35.1037 42.691L39.2043 40.3275C39.514 40.1489 39.7049 39.8186 39.7049 39.4611Z" fill="#6F24FF"/>
<path d="M46.4476 20.1963V15.4722C46.4476 14.7028 45.6148 14.2216 44.9482 14.6059L40.8477 16.9693C40.5379 17.1479 40.347 17.4782 40.347 17.8357V22.5598C40.347 23.3293 41.1798 23.8105 41.8464 23.4262L45.9469 21.0627C46.2567 20.8842 46.4476 20.5539 46.4476 20.1963Z" fill="#6F24FF"/>
<path d="M46.4476 27.9022V23.1781C46.4476 22.4087 45.6148 21.9275 44.9482 22.3118L40.8477 24.6752C40.5379 24.8538 40.347 25.1841 40.347 25.5416V30.2657C40.347 31.0352 41.1798 31.5164 41.8464 31.1321L45.9469 28.7686C46.2567 28.5901 46.4476 28.2598 46.4476 27.9022Z" fill="#6F24FF"/>
<path d="M46.4476 35.6081V30.884C46.4476 30.1146 45.6148 29.6334 44.9482 30.0177L40.8477 32.3811C40.5379 32.5597 40.347 32.89 40.347 33.2475V37.9716C40.347 38.7411 41.1798 39.2223 41.8464 38.838L45.9469 36.4745C46.2567 36.296 46.4476 35.9657 46.4476 35.6081Z" fill="#6F24FF"/>
<path d="M25.5721 0.33937L6.71698 11.2254C6.05044 11.6102 6.05029 12.5722 6.71671 12.9573L25.5799 23.856C25.8893 24.0348 26.2707 24.0348 26.5802 23.8561L45.4352 12.9701C46.1018 12.5853 46.1019 11.6233 45.4355 11.2383L26.5723 0.339529C26.2629 0.16074 25.8816 0.16068 25.5721 0.33937Z" fill="#2A2A2A"/>
<path d="M26.4817 16.4158L30.5729 18.7778C31.2393 19.1625 31.2397 20.1243 30.5736 20.5095L26.4765 22.8789C26.167 23.0579 25.7855 23.058 25.4758 22.8792L21.3847 20.5172C20.7183 20.1325 20.7179 19.1707 21.384 18.7855L25.4811 16.4161C25.7906 16.2371 26.1721 16.237 26.4817 16.4158Z" fill="white"/>
<path d="M19.8082 12.5628L23.8994 14.9248C24.5658 15.3096 24.5661 16.2713 23.9 16.6565L19.8029 19.0259C19.4934 19.2049 19.1119 19.2051 18.8023 19.0263L14.7111 16.6643C14.0447 16.2795 14.0444 15.3178 14.7105 14.9326L18.8076 12.5632C19.1171 12.3842 19.4986 12.384 19.8082 12.5628Z" fill="white"/>
<path d="M13.1347 8.70985L17.2259 11.0719C17.8923 11.4566 17.8926 12.4184 17.2265 12.8036L13.1294 15.173C12.8199 15.352 12.4384 15.3521 12.1288 15.1733L8.03764 12.8113C7.37125 12.4266 7.3709 11.4648 8.03701 11.0796L12.1341 8.71021C12.4436 8.53123 12.8251 8.53109 13.1347 8.70985Z" fill="white"/>
<path d="M33.1898 12.5029L37.281 14.865C37.9474 15.2497 37.9477 16.2114 37.2816 16.5966L33.1845 18.966C32.875 19.145 32.4935 19.1452 32.1839 18.9664L28.0927 16.6044C27.4263 16.2196 27.426 15.2579 28.0921 14.8727L32.1892 12.5033C32.4987 12.3243 32.8802 12.3242 33.1898 12.5029Z" fill="white"/>
<path d="M26.5163 8.64996L30.6075 11.012C31.2739 11.3967 31.2742 12.3585 30.6081 12.7437L26.511 15.1131C26.2015 15.2921 25.82 15.2922 25.5104 15.1135L21.4192 12.7514C20.7528 12.3667 20.7525 11.4049 21.4186 11.0197L25.5157 8.65032C25.8252 8.47134 26.2067 8.4712 26.5163 8.64996Z" fill="white"/>
<path d="M19.8428 4.79701L23.934 7.15905C24.6004 7.54379 24.6007 8.50552 23.9346 8.89074L19.8375 11.2601C19.528 11.4391 19.1465 11.4393 18.8369 11.2605L14.7457 8.89846C14.0793 8.51372 14.079 7.55199 14.7451 7.16677L18.8422 4.79737C19.1517 4.61838 19.5332 4.61825 19.8428 4.79701Z" fill="white"/>
<path d="M39.8979 8.59007L43.9891 10.9521C44.6555 11.3369 44.6559 12.2986 43.9898 12.6838L39.8927 15.0532C39.5832 15.2322 39.2017 15.2323 38.892 15.0536L34.8008 12.6915C34.1345 12.3068 34.1341 11.3451 34.8002 10.9598L38.8973 8.59044C39.2068 8.41145 39.5883 8.41131 39.8979 8.59007Z" fill="white"/>
<path d="M33.2244 4.73712L37.3156 7.09916C37.982 7.4839 37.9823 8.44563 37.3162 8.83085L33.2191 11.2003C32.9096 11.3792 32.5281 11.3794 32.2185 11.2006L28.1273 8.83857C27.4609 8.45383 27.4606 7.4921 28.1267 7.10688L32.2238 4.73748C32.5333 4.5585 32.9148 4.55836 33.2244 4.73712Z" fill="white"/>
<path d="M26.5509 0.884168L30.6421 3.24621C31.3085 3.63095 31.3088 4.59268 30.6427 4.9779L26.5456 7.3473C26.2361 7.52629 25.8546 7.52643 25.545 7.34766L21.4538 4.98562C20.7874 4.60088 20.7871 3.63915 21.4532 3.25393L25.5503 0.884529C25.8598 0.705544 26.2413 0.705407 26.5509 0.884168Z" fill="white"/>
</svg>
