<svg width="640" height="512" viewBox="0 0 640 512" fill="none" xmlns="http://www.w3.org/2000/svg">
<path d="M512 160C556.18 160 592 124.18 592 80C592 35.82 556.2 0 512 0C467.82 0 432 35.82 432 80C432 124.18 467.8 160 512 160ZM490.1 192C477.3 192 465.22 195.037 454.24 200.24C454.8 205.5 455.8 210.6 455.8 216C455.8 249.71 443.02 280.21 422.64 304H622.34C632.1 304 640 295.6 640 285.3C640 233.8 600.6 192 551.9 192H490.1ZM396.6 285.5C413.4 267.2 423.8 242.9 423.8 216C423.8 158.56 377.26 112 320.7 112C284.77 112 253.63 130.53 235.11 158.3L193.1 126.1C202.4 113.1 208 97.24 208 80C208 35.82 172.2 0 128 0C103.8 0 82.52 10.97 67.96 27.95L38.81 5.109C34.41 1.672 29.19 0 24.03 0C16.91 0 9.846 3.156 5.127 9.188C-3.061 19.62 -1.248 34.72 9.189 42.89L600.289 505.99C610.789 514.193 625.849 512.318 633.979 501.912C642.167 491.472 640.354 476.382 629.917 468.212L396.6 285.5ZM270.1 352C191.6 352 128 411.7 128 485.3C128 500.1 140.7 512 156.4 512H483.6C495.22 512 505.14 505.417 509.55 496.04L325.7 352H270.1ZM186.1 243.2L121.6 192H88.08C39.44 192 0 233.8 0 285.3C0 295.6 7.887 304 17.62 304H217.12C202.4 286.8 191.8 266.1 186.1 243.2Z" fill="#FD7200"/>
</svg>
