<svg width="640" height="448" viewBox="0 0 640 448" fill="none" xmlns="http://www.w3.org/2000/svg">
<path d="M128 64H512V320H576V48C576 21.63 554.4 0 528 0H112C85.63 0 64 21.63 64 48V320H128V64ZM624 352H16C7.25 352 0 359.3 0 368V384C0 419.25 28.75 448 64 448H576C611.25 448 640 419.25 640 384V368C640 359.3 632.8 352 624 352ZM365.9 254.2C369.8 258.1 374.9 260 380 260C385.1 260 390.23 258.062 394.14 254.156L442.14 206.156C449.952 198.343 449.952 185.656 442.14 177.846L394.14 129.846C386.328 122.033 373.67 122.033 365.86 129.846C358.048 137.659 358.048 150.346 365.86 158.156L399.72 191.996L365.86 225.836C358 233.7 358 246.4 365.9 254.2ZM274.1 129.9C266.288 122.087 253.63 122.087 245.82 129.9L197.82 177.9C190.008 185.713 190.008 198.4 197.82 206.21L245.82 254.21C249.8 258.1 254.9 260 260 260C265.1 260 270.23 258.062 274.14 254.156C281.952 246.343 281.952 233.656 274.14 225.846L240.3 192L274.16 158.16C281.1 150.4 281.1 137.7 274.1 129.9Z" fill="#FD7200"/>
</svg>
